<?xml version="1.0" encoding="UTF-8"?>
<!DOCTYPE svg PUBLIC "-//W3C//DTD SVG 1.1//EN" "http://www.w3.org/Graphics/SVG/1.1/DTD/svg11.dtd">
<svg xmlns="http://www.w3.org/2000/svg" version="1.1" width="512px" height="512px" style="shape-rendering:geometricPrecision; text-rendering:geometricPrecision; image-rendering:optimizeQuality; fill-rule:evenodd; clip-rule:evenodd" xmlns:xlink="http://www.w3.org/1999/xlink">
<g><path style="opacity:0.77" fill="#030303" d="M 128.5,-0.5 C 213.167,-0.5 297.833,-0.5 382.5,-0.5C 455.167,12.8333 498.167,55.8333 511.5,128.5C 511.5,213.833 511.5,299.167 511.5,384.5C 502.017,442.15 470.35,482.317 416.5,505C 409.079,507.312 401.746,509.478 394.5,511.5C 391.167,511.5 387.833,511.5 384.5,511.5C 387.974,510.475 391.64,509.808 395.5,509.5C 434.035,500.088 464.369,479.088 486.5,446.5C 492.806,437.556 497.806,427.889 501.5,417.5C 506.267,403.565 509.101,389.232 510,374.5C 510.667,294.167 510.667,213.833 510,133.5C 501.558,70.3999 467.391,28.2333 407.5,7C 399.936,4.85887 392.269,3.1922 384.5,2C 300.854,0.358216 217.188,0.0248827 133.5,1C 76.593,8.18379 36.093,37.6838 12,89.5C 6.55773,103.378 2.89106,117.711 1,132.5C 0.333333,213.167 0.333333,293.833 1,374.5C 2.19521,396.633 8.02854,417.299 18.5,436.5C 23.7066,446.928 30.3733,456.261 38.5,464.5C 58.2534,486.551 82.5867,501.217 111.5,508.5C 115.615,509.51 119.615,510.51 123.5,511.5C 121.167,511.5 118.833,511.5 116.5,511.5C 59.1155,497.372 21.6155,462.038 4,405.5C 2.41113,398.379 0.911125,391.379 -0.5,384.5C -0.5,299.167 -0.5,213.833 -0.5,128.5C 12.8333,55.8333 55.8333,12.8333 128.5,-0.5 Z"/></g>
<g><path style="opacity:1" fill="#282728" d="M 501.5,417.5 C 469.106,428.015 436.106,436.182 402.5,442C 382.488,445.18 362.488,445.18 342.5,442C 325.734,436.966 308.734,432.966 291.5,430C 265.257,427.989 239.59,430.989 214.5,439C 188.073,447.809 161.406,455.809 134.5,463C 124.957,465.425 115.291,466.425 105.5,466C 104.484,465.481 103.818,464.647 103.5,463.5C 109.23,447.371 116.064,431.704 124,416.5C 125.869,411.228 127.535,405.894 129,400.5C 131.315,389.694 129.148,380.028 122.5,371.5C 133.619,367.068 144.953,362.901 156.5,359C 192.894,347.869 229.228,336.535 265.5,325C 290.311,316.952 314.311,306.952 337.5,295C 352.788,286.942 365.288,275.775 375,261.5C 383.105,244.296 382.105,227.63 372,211.5C 364.729,200.727 355.895,191.394 345.5,183.5C 341.383,189.562 337.383,195.728 333.5,202C 337.62,207.122 342.12,211.956 347,216.5C 351.103,221.705 354.437,227.372 357,233.5C 358.62,241.302 356.953,248.302 352,254.5C 340.841,266.501 327.675,275.667 312.5,282C 296.738,288.921 280.738,295.254 264.5,301C 219.562,315.48 174.562,329.646 129.5,343.5C 148.269,332.611 166.935,321.444 185.5,310C 214.723,290.705 237.39,265.539 253.5,234.5C 246.054,232.107 238.554,229.774 231,227.5C 220.708,246.559 207.208,263.059 190.5,277C 167.845,294.002 143.845,309.002 118.5,322C 108.555,327.557 100.389,335.057 94,344.5C 91.7301,349.246 90.5634,354.246 90.5,359.5C 68.2909,367.183 49.1242,379.516 33,396.5C 25.0757,408.688 20.2424,422.021 18.5,436.5C 8.02854,417.299 2.19521,396.633 1,374.5C 0.333333,293.833 0.333333,213.167 1,132.5C 2.89106,117.711 6.55773,103.378 12,89.5C 36.093,37.6838 76.593,8.18379 133.5,1C 217.188,0.0248827 300.854,0.358216 384.5,2C 392.269,3.1922 399.936,4.85887 407.5,7C 467.391,28.2333 501.558,70.3999 510,133.5C 510.667,213.833 510.667,294.167 510,374.5C 509.101,389.232 506.267,403.565 501.5,417.5 Z"/></g>
<g><path style="opacity:1" fill="#f3f3f3" d="M 256.5,76.5 C 296.138,75.5555 321.971,93.8888 334,131.5C 339.328,174.477 321.495,202.644 280.5,216C 243.655,221.329 216.822,207.495 200,174.5C 187.665,138.508 196.832,109.341 227.5,87C 236.617,81.5758 246.283,78.0758 256.5,76.5 Z"/></g>
<g><path style="opacity:1" fill="#a4f2f1" d="M 122.5,371.5 C 117.025,367.551 114.525,362.218 115,355.5C 118.802,350.192 123.635,346.192 129.5,343.5C 174.562,329.646 219.562,315.48 264.5,301C 280.738,295.254 296.738,288.921 312.5,282C 327.675,275.667 340.841,266.501 352,254.5C 356.953,248.302 358.62,241.302 357,233.5C 354.437,227.372 351.103,221.705 347,216.5C 342.12,211.956 337.62,207.122 333.5,202C 337.383,195.728 341.383,189.562 345.5,183.5C 355.895,191.394 364.729,200.727 372,211.5C 382.105,227.63 383.105,244.296 375,261.5C 365.288,275.775 352.788,286.942 337.5,295C 314.311,306.952 290.311,316.952 265.5,325C 229.228,336.535 192.894,347.869 156.5,359C 144.953,362.901 133.619,367.068 122.5,371.5 Z"/></g>
<g><path style="opacity:1" fill="#f0c64f" d="M 129.5,343.5 C 123.635,346.192 118.802,350.192 115,355.5C 114.525,362.218 117.025,367.551 122.5,371.5C 129.148,380.028 131.315,389.694 129,400.5C 127.535,405.894 125.869,411.228 124,416.5C 116.064,431.704 109.23,447.371 103.5,463.5C 103.818,464.647 104.484,465.481 105.5,466C 115.291,466.425 124.957,465.425 134.5,463C 161.406,455.809 188.073,447.809 214.5,439C 239.59,430.989 265.257,427.989 291.5,430C 308.734,432.966 325.734,436.966 342.5,442C 362.488,445.18 382.488,445.18 402.5,442C 436.106,436.182 469.106,428.015 501.5,417.5C 497.806,427.889 492.806,437.556 486.5,446.5C 448.586,458.687 409.753,466.02 370,468.5C 361.126,468.087 352.293,467.254 343.5,466C 326.833,462 310.167,458 293.5,454C 279.242,451.591 265.242,452.091 251.5,455.5C 245.728,455.59 240.062,456.423 234.5,458C 220.763,461.683 207.097,465.517 193.5,469.5C 191.721,467.454 190.054,465.287 188.5,463C 183.338,462.998 178.672,464.498 174.5,467.5C 170.849,468.659 167.515,470.326 164.5,472.5C 157.264,476.61 150.264,480.943 143.5,485.5C 129.709,488.969 115.709,490.136 101.5,489C 88.1684,486.174 81.1684,478.007 80.5,464.5C 80.5324,459.369 81.3657,454.369 83,449.5C 88.7263,436.38 94.7263,423.38 101,410.5C 104.543,403.549 106.21,396.216 106,388.5C 103.715,385.568 101.215,382.902 98.5,380.5C 94.4487,374.058 91.782,367.058 90.5,359.5C 90.5634,354.246 91.7301,349.246 94,344.5C 100.389,335.057 108.555,327.557 118.5,322C 143.845,309.002 167.845,294.002 190.5,277C 207.208,263.059 220.708,246.559 231,227.5C 238.554,229.774 246.054,232.107 253.5,234.5C 237.39,265.539 214.723,290.705 185.5,310C 166.935,321.444 148.269,332.611 129.5,343.5 Z"/></g>
<g><path style="opacity:1" fill="#a4f2f1" d="M 90.5,359.5 C 91.782,367.058 94.4487,374.058 98.5,380.5C 81.128,387.264 65.628,396.931 52,409.5C 42.5953,426.569 38.0953,444.902 38.5,464.5C 30.3733,456.261 23.7066,446.928 18.5,436.5C 20.2424,422.021 25.0757,408.688 33,396.5C 49.1242,379.516 68.2909,367.183 90.5,359.5 Z"/></g>
<g><path style="opacity:1" fill="#282728" d="M 98.5,380.5 C 101.215,382.902 103.715,385.568 106,388.5C 106.21,396.216 104.543,403.549 101,410.5C 94.7263,423.38 88.7263,436.38 83,449.5C 81.3657,454.369 80.5324,459.369 80.5,464.5C 81.1684,478.007 88.1684,486.174 101.5,489C 115.709,490.136 129.709,488.969 143.5,485.5C 133.892,494.638 123.225,502.304 111.5,508.5C 82.5867,501.217 58.2534,486.551 38.5,464.5C 38.0953,444.902 42.5953,426.569 52,409.5C 65.628,396.931 81.128,387.264 98.5,380.5 Z"/></g>
<g><path style="opacity:1" fill="#282728" d="M 486.5,446.5 C 464.369,479.088 434.035,500.088 395.5,509.5C 357.655,489.935 318.322,473.768 277.5,461C 268.768,459.354 260.101,457.521 251.5,455.5C 265.242,452.091 279.242,451.591 293.5,454C 310.167,458 326.833,462 343.5,466C 352.293,467.254 361.126,468.087 370,468.5C 409.753,466.02 448.586,458.687 486.5,446.5 Z"/></g>
<g><path style="opacity:1" fill="#a4f2f1" d="M 251.5,455.5 C 260.101,457.521 268.768,459.354 277.5,461C 318.322,473.768 357.655,489.935 395.5,509.5C 391.64,509.808 387.974,510.475 384.5,511.5C 371.167,511.5 357.833,511.5 344.5,511.5C 314.462,496.209 282.796,485.376 249.5,479C 221.315,473.881 195.315,479.215 171.5,495C 163.92,500.277 156.586,505.777 149.5,511.5C 140.833,511.5 132.167,511.5 123.5,511.5C 119.615,510.51 115.615,509.51 111.5,508.5C 123.225,502.304 133.892,494.638 143.5,485.5C 150.264,480.943 157.264,476.61 164.5,472.5C 165.873,472.343 167.207,472.51 168.5,473C 169.777,474.786 171.444,475.952 173.5,476.5C 177.792,475.669 181.792,474.336 185.5,472.5C 188.443,472.02 191.11,471.02 193.5,469.5C 207.097,465.517 220.763,461.683 234.5,458C 240.062,456.423 245.728,455.59 251.5,455.5 Z"/></g>
<g><path style="opacity:1" fill="#e7cf6a" d="M 193.5,469.5 C 191.11,471.02 188.443,472.02 185.5,472.5C 181.684,471.091 178.017,469.424 174.5,467.5C 178.672,464.498 183.338,462.998 188.5,463C 190.054,465.287 191.721,467.454 193.5,469.5 Z"/></g>
<g><path style="opacity:1" fill="#ccdfa4" d="M 174.5,467.5 C 178.017,469.424 181.684,471.091 185.5,472.5C 181.792,474.336 177.792,475.669 173.5,476.5C 171.444,475.952 169.777,474.786 168.5,473C 167.207,472.51 165.873,472.343 164.5,472.5C 167.515,470.326 170.849,468.659 174.5,467.5 Z"/></g>
<g><path style="opacity:1" fill="#282728" d="M 344.5,511.5 C 279.5,511.5 214.5,511.5 149.5,511.5C 156.586,505.777 163.92,500.277 171.5,495C 195.315,479.215 221.315,473.881 249.5,479C 282.796,485.376 314.462,496.209 344.5,511.5 Z"/></g>
</svg>
